<?xml version="1.0" encoding="UTF-8" standalone="no"?>
<!-- Created with Inkscape (http://www.inkscape.org/) -->

<svg
   xmlns:dc="http://purl.org/dc/elements/1.1/"
   xmlns:cc="http://creativecommons.org/ns#"
   xmlns:rdf="http://www.w3.org/1999/02/22-rdf-syntax-ns#"
   xmlns:svg="http://www.w3.org/2000/svg"
   xmlns="http://www.w3.org/2000/svg"
   xmlns:sodipodi="http://sodipodi.sourceforge.net/DTD/sodipodi-0.dtd"
   xmlns:inkscape="http://www.inkscape.org/namespaces/inkscape"
   width="440mm"
   height="100mm"
   viewBox="0 0 440 100"
   version="1.1"
   id="svg3803"
   inkscape:version="0.92.2 5c3e80d, 2017-08-06"
   sodipodi:docname="logo.svg">
  <defs
     id="defs3797" />
  <sodipodi:namedview
     id="base"
     pagecolor="#ffffff"
     bordercolor="#666666"
     borderopacity="1.0"
     inkscape:pageopacity="0.0"
     inkscape:pageshadow="2"
     inkscape:zoom="2.8"
     inkscape:cx="429.13402"
     inkscape:cy="177.93159"
     inkscape:document-units="mm"
     inkscape:current-layer="g3953"
     showgrid="true"
     width="200mm"
     inkscape:pagecheckerboard="true"
     inkscape:window-width="1920"
     inkscape:window-height="1055"
     inkscape:window-x="2560"
     inkscape:window-y="162"
     inkscape:window-maximized="1">
    <inkscape:grid
       type="xygrid"
       id="grid5075" />
  </sodipodi:namedview>
  <metadata
     id="metadata3800">
    <rdf:RDF>
      <cc:Work
         rdf:about="">
        <dc:format>image/svg+xml</dc:format>
        <dc:type
           rdf:resource="http://purl.org/dc/dcmitype/StillImage" />
        <dc:title></dc:title>
      </cc:Work>
    </rdf:RDF>
  </metadata>
  <g
     inkscape:label="Layer 1"
     inkscape:groupmode="layer"
     id="layer1"
     transform="translate(0,-197)">
    <g
       id="g3953"
       transform="matrix(2.6458333,0,0,2.6458333,1.5117552,-2505.6178)">
      <path
         id="path3943"
         d="m 2.428628,1031.2571 c -1.1046,0 -2.00000001,0.9 -2.00000001,2 v 7 2 7 c 0,1.1 0.89540001,2 2.00000001,2 h 9 9 c 1.105,0 2,-0.9 2,-2 v -7 -2 -7 c 0,-1.1 -0.895,-2 -2,-2 h -9 z"
         inkscape:connector-curvature="0"
         style="opacity:1;fill:#368151;fill-opacity:1"
         inkscape:export-xdpi="96"
         inkscape:export-ydpi="96" />
      <path
         id="path3945"
         d="m 3,1049.9714 c -1.1046,0 -2,-0.9 -2,-2 v -7 -2 -3 h 22 v 3 2 7 c 0,1.1 -0.895,2 -2,2 h -9 z"
         inkscape:connector-curvature="0"
         style="fill:#368151;fill-opacity:0"
         inkscape:export-xdpi="96"
         inkscape:export-ydpi="96" />
      <path
         id="path3947"
         d="m 4,1033.4714 v 1.1 l 2,2.4 -2,2.3 v 1.1 l 3,-3.4 z"
         inkscape:connector-curvature="0"
         style="fill:#ecf0f1"
         inkscape:export-xdpi="96"
         inkscape:export-ydpi="96" />
      <path
         id="path3949"
         d="m 3,1030.9714 c -1.1046,0 -2,0.8954 -2,2 v 7 2 3 h 22 v -3 -2 -7 c 0,-1.1046 -0.895,-2 -2,-2 h -9 z"
         inkscape:connector-curvature="0"
         style="fill:#368151;fill-opacity:0"
         inkscape:export-xdpi="96"
         inkscape:export-ydpi="96" />
      <path
         id="path3951"
         d="m 4,1034.0964 v 1.125 l 3,1.75 -3,1.75 v 1.125 l 5,-2.875 z m 5,4.875 v 1 h 5 v -1 z"
         inkscape:connector-curvature="0"
         style="fill:#ecf0f1"
         inkscape:export-xdpi="96"
         inkscape:export-ydpi="96" />
      <text
         xml:space="preserve"
         style="font-style:normal;font-weight:normal;font-size:4px;line-height:1.25;font-family:sans-serif;letter-spacing:0px;word-spacing:0px;fill:#000000;fill-opacity:1;stroke:none;stroke-width:0.1"
         x="28.0979"
         y="1048.8999"
         id="text4776"
         inkscape:export-xdpi="96"
         inkscape:export-ydpi="96"><tspan
           sodipodi:role="line"
           id="tspan4774"
           x="28.0979"
           y="1048.8999"
           style="font-size:20.80000114px;fill:#368151;fill-opacity:1;stroke-width:0.1">TONY ANDRE</tspan></text>
      <flowRoot
         xml:space="preserve"
         id="flowRoot4778"
         style="font-style:normal;font-weight:normal;font-size:40px;line-height:1.25;font-family:sans-serif;letter-spacing:0px;word-spacing:0px;fill:#000000;fill-opacity:1;stroke:none"
         transform="matrix(0.1,0,0,0.1,-1.8999999,1021.0333)"><flowRegion
           id="flowRegion4780"><rect
             id="rect4782"
             width="494.28571"
             height="391.42856"
             x="1077.1428"
             y="57.952759" /></flowRegion><flowPara
           id="flowPara4784" /></flowRoot>    </g>
  </g>
</svg>
